<svg width="14" height="8" viewBox="0 0 14 8" fill="none" xmlns="http://www.w3.org/2000/svg">
<path d="M6.11262 0.46251L0.812619 5.76251C0.695458 5.87871 0.602465 6.01697 0.539004 6.16929C0.475544 6.32161 0.442871 6.485 0.442871 6.65001C0.442871 6.81503 0.475544 6.97841 0.539004 7.13073C0.602465 7.28306 0.695458 7.42131 0.812619 7.53751C1.04682 7.77032 1.36364 7.901 1.69387 7.901C2.0241 7.901 2.34092 7.77032 2.57512 7.53751L7.00012 3.11251L11.4251 7.53751C11.6593 7.77032 11.9761 7.901 12.3064 7.901C12.6366 7.901 12.9534 7.77032 13.1876 7.53751C13.3035 7.42071 13.3951 7.28219 13.4573 7.12989C13.5195 6.9776 13.5511 6.81452 13.5501 6.65001C13.5511 6.4855 13.5195 6.32242 13.4573 6.17013C13.3951 6.01783 13.3035 5.87931 13.1876 5.76251L7.88762 0.46251C7.77142 0.34535 7.63316 0.252357 7.48084 0.188897C7.32852 0.125436 7.16513 0.0927626 7.00012 0.0927626C6.8351 0.0927626 6.67172 0.125436 6.5194 0.188897C6.36707 0.252357 6.22882 0.34535 6.11262 0.46251Z" fill="#E5E5E5"/>
</svg>
