<svg width="20" height="20" viewBox="0 0 20 20"  xmlns="http://www.w3.org/2000/svg">
<path d="M15.7208 10.9614C16.4905 10.9614 16.8753 11.3462 16.8753 12.1158V15.2456C16.8753 16.0153 16.4905 16.4001 15.7208 16.4001H12.7449C11.9753 16.4001 11.5905 16.0153 11.5905 15.2456V12.1158C11.5905 10.32 11.7786 8.75508 12.1549 7.42105C12.5482 6.06992 13.3093 4.88982 14.4381 3.88074C14.8144 3.55579 15.1308 3.51303 15.3873 3.75247L16.5418 4.82995C16.7983 5.0694 16.7385 5.36015 16.3622 5.7022C15.7807 6.21529 15.3018 6.95927 14.9255 7.93414C14.5664 8.8919 14.3868 9.90098 14.3868 10.9614H15.7208ZM7.25487 10.9614C8.02451 10.9614 8.40932 11.3462 8.40932 12.1158V15.2456C8.40932 16.0153 8.02451 16.4001 7.25487 16.4001H4.27896C3.50933 16.4001 3.12451 16.0153 3.12451 15.2456V12.1158C3.12451 10.32 3.31264 8.75508 3.68891 7.42105C4.08228 6.06992 4.84336 4.88982 5.97215 3.88074C6.34842 3.55579 6.66482 3.51303 6.92137 3.75247L8.07581 4.82995C8.33236 5.0694 8.2725 5.36015 7.89623 5.7022C7.31473 6.21529 6.83585 6.95927 6.45959 7.93414C6.10042 8.8919 5.92084 9.90098 5.92084 10.9614H7.25487Z" fill=""/>
</svg>
