<svg width="18" height="18" viewBox="0 0 18 18" xmlns="http://www.w3.org/2000/svg">
<path d="M14.8333 0.666748H4.22498C3.64014 0.666943 3.07388 0.872172 2.62471 1.24673C2.17555 1.62128 1.87192 2.14146 1.76665 2.71675L0.708314 8.55008C0.642371 8.91045 0.656435 9.2809 0.74951 9.63523C0.842584 9.98956 1.0124 10.3191 1.24693 10.6005C1.48146 10.882 1.77498 11.1084 2.10671 11.2639C2.43845 11.4193 2.8003 11.5 3.16665 11.5001H6.96665L6.49998 12.6917C6.30587 13.2135 6.24123 13.7746 6.31159 14.3268C6.38196 14.8791 6.58524 15.406 6.90399 15.8624C7.22274 16.3188 7.64746 16.6911 8.1417 16.9473C8.63594 17.2035 9.18495 17.336 9.74165 17.3334C9.90195 17.3331 10.0588 17.2865 10.1933 17.1993C10.3278 17.1121 10.4343 16.988 10.5 16.8417L12.875 11.5001H14.8333C15.4964 11.5001 16.1322 11.2367 16.6011 10.7678C17.0699 10.299 17.3333 9.66312 17.3333 9.00008V3.16675C17.3333 2.50371 17.0699 1.86782 16.6011 1.39898C16.1322 0.93014 15.4964 0.666748 14.8333 0.666748ZM11.5 10.4917L9.23331 15.5917C9.00139 15.5216 8.78629 15.4047 8.60127 15.2482C8.41624 15.0918 8.26521 14.8991 8.15747 14.682C8.04973 14.465 7.98757 14.2282 7.97482 13.9862C7.96206 13.7443 7.99899 13.5022 8.08331 13.2751L8.52498 12.0834C8.61909 11.8315 8.65086 11.5606 8.61759 11.2938C8.58431 11.027 8.48697 10.7722 8.33387 10.5511C8.18077 10.3301 7.97647 10.1494 7.73839 10.0244C7.50032 9.89941 7.23553 9.83389 6.96665 9.83342H3.16665C3.04422 9.83361 2.92326 9.80684 2.81235 9.75498C2.70145 9.70313 2.60333 9.62748 2.52498 9.53342C2.4447 9.44065 2.3859 9.3313 2.35277 9.21317C2.31964 9.09505 2.31299 8.97107 2.33331 8.85008L3.39165 3.01675C3.42714 2.82262 3.53039 2.64738 3.68299 2.52225C3.83559 2.39711 4.02766 2.3302 4.22498 2.33341H11.5V10.4917ZM15.6666 9.00008C15.6666 9.2211 15.5789 9.43306 15.4226 9.58934C15.2663 9.74562 15.0543 9.83342 14.8333 9.83342H13.1666V2.33341H14.8333C15.0543 2.33341 15.2663 2.42121 15.4226 2.57749C15.5789 2.73377 15.6666 2.94573 15.6666 3.16675V9.00008Z" fill=""/>
</svg>
