<svg width="26" height="26" viewBox="0 0 26 26" fill="none" xmlns="http://www.w3.org/2000/svg">
<path d="M13.0001 0.5C11.3586 0.5 9.7331 0.823322 8.21653 1.45151C6.69996 2.07969 5.32197 3.00043 4.16124 4.16117C1.81704 6.50537 0.500077 9.68479 0.500077 13C0.489149 15.8864 1.48857 18.6857 3.32508 20.9125L0.825077 23.4125C0.65163 23.5883 0.534134 23.8115 0.487417 24.054C0.440699 24.2965 0.466852 24.5474 0.562577 24.775C0.666399 24.9999 0.834707 25.1889 1.04614 25.318C1.25756 25.4471 1.50258 25.5104 1.75008 25.5H13.0001C16.3153 25.5 19.4947 24.183 21.8389 21.8388C24.1831 19.4946 25.5001 16.3152 25.5001 13C25.5001 9.68479 24.1831 6.50537 21.8389 4.16117C19.4947 1.81696 16.3153 0.5 13.0001 0.5ZM13.0001 23H4.76258L5.92508 21.8375C6.15789 21.6033 6.28857 21.2865 6.28857 20.9562C6.28857 20.626 6.15789 20.3092 5.92508 20.075C4.28831 18.4401 3.26904 16.2882 3.04094 13.986C2.81284 11.6838 3.39 9.37376 4.67411 7.4494C5.95822 5.52505 7.86982 4.10545 10.0832 3.43247C12.2966 2.75948 14.6749 2.87476 16.8128 3.75864C18.9508 4.64253 20.7161 6.24034 21.8081 8.27986C22.9001 10.3194 23.2512 12.6744 22.8015 14.9438C22.3518 17.2131 21.1292 19.2563 19.342 20.7253C17.5548 22.1943 15.3135 22.9982 13.0001 23ZM19.2501 11.75H6.75008C6.41856 11.75 6.10061 11.8817 5.86619 12.1161C5.63177 12.3505 5.50008 12.6685 5.50008 13C5.50008 13.3315 5.63177 13.6495 5.86619 13.8839C6.10061 14.1183 6.41856 14.25 6.75008 14.25H19.2501C19.5816 14.25 19.8995 14.1183 20.134 13.8839C20.3684 13.6495 20.5001 13.3315 20.5001 13C20.5001 12.6685 20.3684 12.3505 20.134 12.1161C19.8995 11.8817 19.5816 11.75 19.2501 11.75ZM16.7501 16.75H9.25008C8.91856 16.75 8.60061 16.8817 8.36619 17.1161C8.13177 17.3505 8.00008 17.6685 8.00008 18C8.00008 18.3315 8.13177 18.6495 8.36619 18.8839C8.60061 19.1183 8.91856 19.25 9.25008 19.25H16.7501C17.0816 19.25 17.3995 19.1183 17.634 18.8839C17.8684 18.6495 18.0001 18.3315 18.0001 18C18.0001 17.6685 17.8684 17.3505 17.634 17.1161C17.3995 16.8817 17.0816 16.75 16.7501 16.75ZM9.25008 9.25H16.7501C17.0816 9.25 17.3995 9.1183 17.634 8.88388C17.8684 8.64946 18.0001 8.33152 18.0001 8C18.0001 7.66848 17.8684 7.35054 17.634 7.11612C17.3995 6.8817 17.0816 6.75 16.7501 6.75H9.25008C8.91856 6.75 8.60061 6.8817 8.36619 7.11612C8.13177 7.35054 8.00008 7.66848 8.00008 8C8.00008 8.33152 8.13177 8.64946 8.36619 8.88388C8.60061 9.1183 8.91856 9.25 9.25008 9.25Z" fill="#D84C10"/>
</svg>
