<svg width="30" height="31" viewBox="0 0 30 31" fill="none" xmlns="http://www.w3.org/2000/svg">
<path d="M12.3329 9.4219C12.3329 8.56585 13.0267 7.87151 13.8827 7.87151C14.7388 7.87151 15.4325 8.56585 15.4325 9.4219V15.9188L19.7298 17.8079C20.5126 18.1524 20.8677 19.0659 20.5232 19.8481C20.1786 20.6303 19.2652 20.9854 18.4829 20.6415L13.3384 18.3797C12.7507 18.1594 12.3329 17.5928 12.3329 16.9284V9.4219ZM0.31648 9.87542C0.271949 9.74358 0.24441 9.60354 0.236792 9.45764L0.00241687 5.15158C-0.0415285 4.29904 0.614723 3.57247 1.46726 3.52911C2.31981 3.48517 3.04637 4.14142 3.08973 4.99396L3.13309 5.79084C3.77164 4.96912 4.49454 4.21658 5.28993 3.54552C6.34286 2.65724 7.53876 1.89962 8.86474 1.30841C12.654 -0.382027 16.7661 -0.377926 20.3503 0.994929C23.8982 2.35431 26.9339 5.05373 28.6355 8.77796C28.6806 8.85882 28.7187 8.94436 28.7492 9.03342C30.3816 12.7869 30.3623 16.8458 29.0052 20.3895C27.6458 23.9374 24.9464 26.9731 21.2222 28.6741C20.9915 28.8034 20.7314 28.871 20.4669 28.8704C19.6109 28.8704 18.9171 28.1766 18.9171 27.3206C18.9171 26.6467 19.3472 26.0737 19.9478 25.8604C20.3984 25.6536 20.8302 25.4227 21.2421 25.169C21.289 25.1303 21.3388 25.094 21.3915 25.06C22.0554 24.6311 22.6865 24.1401 23.2572 23.5928C23.2947 23.5571 23.3339 23.5231 23.3743 23.4921C24.5849 22.2909 25.5119 20.8518 26.1113 19.2874C27.2046 16.4338 27.2111 13.1666 25.871 10.1631L25.8704 10.1614C24.5304 7.15783 22.0976 4.98049 19.2482 3.88888C16.3946 2.79611 13.1274 2.78966 10.1239 4.12912C9.09981 4.58531 8.1451 5.18358 7.28798 5.90627C6.71025 6.39377 6.18642 6.92932 5.72059 7.5053L5.92274 7.4801C6.77177 7.37639 7.54462 7.98108 7.64833 8.8301C7.75205 9.67913 7.14736 10.452 6.29833 10.5557L2.01746 11.083C1.21707 11.1803 0.484645 10.6489 0.31648 9.87542ZM16.6109 29.9708C17.8343 29.8337 18.4179 28.3928 17.6339 27.4419C17.2993 27.0358 16.7907 26.836 16.2693 26.8899C15.3575 26.9925 14.4452 26.9907 13.5341 26.8823C12.9868 26.8173 12.453 27.0417 12.1167 27.4782C11.3925 28.4409 11.9673 29.8085 13.1608 29.9596C14.3081 30.0968 15.4624 30.0997 16.6109 29.9708ZM6.72372 27.5878C7.18779 27.896 7.76494 27.9311 8.26591 27.6897C9.3376 27.1589 9.43603 25.6735 8.44228 25.0085C7.69169 24.5133 6.96923 23.8975 6.35575 23.2413C5.79442 22.6436 4.8745 22.5821 4.23993 23.1012C4.07604 23.2356 3.94147 23.4021 3.84453 23.5906C3.74759 23.779 3.69034 23.9853 3.67634 24.1968C3.66233 24.4082 3.69186 24.6203 3.7631 24.8199C3.83434 25.0195 3.94578 25.2023 4.09051 25.3571C4.87216 26.1891 5.76981 26.9591 6.72372 27.5878ZM0.640504 19.4514C0.811599 20.0045 1.26863 20.4077 1.83641 20.5167C2.98133 20.7294 3.94637 19.6471 3.60184 18.535C3.32879 17.6561 3.16297 16.762 3.09559 15.8438C3.0159 14.7698 1.91141 14.1082 0.924099 14.5354C0.32234 14.8079 -0.0403567 15.402 0.00358875 16.0629C0.0867921 17.2149 0.29773 18.3481 0.640504 19.4514Z" fill="#717172"/>
</svg>
