<svg width="50" height="50" viewBox="0 0 50 50" fill="none" xmlns="http://www.w3.org/2000/svg">
<path d="M25 29.5735C24.6344 29.5734 24.2751 29.4773 23.9583 29.2948L5.20833 18.4672C4.21169 17.8915 3.8704 16.6169 4.44606 15.6202C4.6289 15.3037 4.89179 15.0408 5.20833 14.858L23.9583 4.03846C24.6034 3.66817 25.3966 3.66817 26.0417 4.03846L44.7917 14.858C45.7883 15.4336 46.1296 16.7083 45.5539 17.7049C45.3711 18.0214 45.1082 18.2843 44.7917 18.4672L26.0417 29.2948C25.7249 29.4773 25.3656 29.5734 25 29.5735Z" fill="#337BFD" fill-opacity="0.43"/>
<path d="M44.7917 23.1914L40.6998 20.8302L26.0417 29.2949C25.3969 29.6665 24.6031 29.6665 23.9583 29.2949L9.30023 20.8302L5.20833 23.1914C4.21169 23.7671 3.8704 25.0417 4.44606 26.0383C4.6289 26.3549 4.89179 26.6178 5.20833 26.8006L23.9583 37.6282C24.6031 37.9998 25.3969 37.9998 26.0417 37.6282L44.7917 26.8006C45.7883 26.2249 46.1296 24.9503 45.5539 23.9537C45.3711 23.6371 45.1082 23.3742 44.7917 23.1914Z" fill="#337BFD" fill-opacity="0.8"/>
<path d="M44.7917 31.5246L40.6998 29.1635L26.0417 37.6281C25.3969 37.9998 24.6031 37.9998 23.9583 37.6281L9.30023 29.1635L5.20833 31.5246C4.21169 32.1003 3.8704 33.3749 4.44606 34.3716C4.6289 34.6881 4.89179 34.951 5.20833 35.1338L23.9583 45.9615C24.6031 46.3331 25.3969 46.3331 26.0417 45.9615L44.7917 35.1338C45.7883 34.5582 46.1296 33.2836 45.5539 32.2869C45.3711 31.9704 45.1082 31.7075 44.7917 31.5246Z" fill="#337BFD"/>
</svg>
