<svg width="18" height="18" viewBox="0 0 18 18" xmlns="http://www.w3.org/2000/svg">
<path d="M16.7501 7.40012C16.5159 7.11899 16.2229 6.89269 15.8917 6.73718C15.5606 6.58167 15.1993 6.50074 14.8334 6.50012H11.0334L11.5001 5.30845C11.6942 4.78669 11.7588 4.22562 11.6885 3.67339C11.6181 3.12115 11.4148 2.59422 11.0961 2.13781C10.7773 1.6814 10.3526 1.30912 9.85837 1.0529C9.36413 0.796693 8.81511 0.664199 8.25841 0.666785C8.09811 0.66712 7.94131 0.713681 7.80681 0.800887C7.6723 0.888094 7.5658 1.01224 7.50008 1.15845L5.12508 6.50012H3.16675C2.50371 6.50012 1.86782 6.76351 1.39898 7.23235C0.93014 7.70119 0.666748 8.33708 0.666748 9.00012V14.8335C0.666748 15.4965 0.93014 16.1324 1.39898 16.6012C1.86782 17.0701 2.50371 17.3335 3.16675 17.3335H13.7751C14.3599 17.3333 14.9262 17.128 15.3753 16.7535C15.8245 16.3789 16.1281 15.8587 16.2334 15.2835L17.2917 9.45012C17.3572 9.0896 17.3426 8.7191 17.249 8.36485C17.1554 8.01059 16.9851 7.68125 16.7501 7.40012ZM4.83342 15.6668H3.16675C2.94573 15.6668 2.73377 15.579 2.57749 15.4227C2.42121 15.2664 2.33341 15.0545 2.33341 14.8335V9.00012C2.33341 8.77911 2.42121 8.56714 2.57749 8.41086C2.73377 8.25458 2.94573 8.16679 3.16675 8.16679H4.83342V15.6668ZM15.6667 9.15012L14.6084 14.9835C14.5729 15.1776 14.4697 15.3528 14.3171 15.478C14.1645 15.6031 13.9724 15.67 13.7751 15.6668H6.50008V7.50845L8.76675 2.40845C9.00007 2.47647 9.21675 2.59212 9.40313 2.7481C9.5895 2.90409 9.74152 3.09701 9.84958 3.3147C9.95764 3.53238 10.0194 3.77011 10.031 4.01287C10.0425 4.25563 10.0036 4.49815 9.91675 4.72512L9.47508 5.91679C9.38097 6.16866 9.3492 6.43957 9.38248 6.70639C9.41576 6.97321 9.5131 7.22802 9.66619 7.44907C9.81929 7.67012 10.0236 7.85084 10.2617 7.97582C10.4997 8.1008 10.7645 8.16632 11.0334 8.16679H14.8334C14.9558 8.16659 15.0768 8.19336 15.1877 8.24522C15.2986 8.29707 15.3967 8.37272 15.4751 8.46678C15.5554 8.55955 15.6142 8.66891 15.6473 8.78703C15.6804 8.90515 15.6871 9.02913 15.6667 9.15012Z" fill="" />
</svg>
