<svg width="38" height="38" viewBox="0 0 38 38" fill="none">
<path d="M33.4526 10.9262L33.4456 5.97369L24.3064 0V3.82051L30.3346 7.78962L30.3393 10.8319L27.5389 12.728L25.6284 11.3342V8.97351L22.5151 6.84389V11.1408L17.5799 14.169L17.5706 22.1684L14.0813 24.1329L12.2899 22.7297V20.4138L14.4105 18.9611V18.9422V15.3575L10.5942 17.9116L7.67705 16.0132L5.01217 17.7584L9.17653 20.6096V22.3595L6.17528 24.39L3.11333 22.317V15.4189L7.65842 12.3412L7.66308 9.38154L13.4927 13.1359L18.3928 9.8744L15.4055 8.13153L13.4507 9.44984L9.19286 6.63404L13.9948 3.83467L18.1545 6.27323V2.63663L13.9995 0.20045L4.55439 5.70722L4.54738 10.662L0 13.742V23.9938L4.54738 27.0738L4.55439 32.0287L13.6936 38V34.1819L7.66536 30.2128L7.66071 27.1705L10.4611 25.2744L12.3716 26.6681V29.0289L15.4849 31.1585V26.8615L20.4901 23.8334L20.5461 15.8339L23.9187 13.8694L25.7101 15.2727V17.5885L23.5894 19.0412V19.0601V22.6448L27.4058 20.0907L30.323 21.9892L32.9878 20.244L28.8235 17.3904V15.6429L31.8247 13.6124L34.8867 15.6854V22.5835L30.3416 25.6611L30.3369 28.6208L24.5073 24.8641L19.6072 28.1044L22.5945 29.8448L24.5493 28.5524L28.8071 31.3683L24.0052 34.1677L19.8455 31.7291V35.3634L24.0005 37.7995L33.4456 32.2952L33.4526 27.3402L38 24.2602V14.0062L33.4526 10.9262Z" fill="#1E58EB"/>
</svg>
