<svg width="50" height="50" viewBox="0 0 50 50" fill="none" xmlns="http://www.w3.org/2000/svg">
<path d="M18.5242 45.5282C15.949 45.5282 13.4317 44.7646 11.2904 43.334C9.14923 41.9034 7.48031 39.87 6.4947 37.4909C5.50909 35.1118 5.25107 32.4939 5.75326 29.9681C6.25544 27.4424 7.49529 25.1223 9.31601 23.3012L25.8891 6.72811C27.6477 4.97271 30.0312 3.98726 32.5159 3.98828C35.0007 3.98931 37.3834 4.97672 39.1405 6.73357C40.8976 8.49042 41.8854 10.873 41.8868 13.3577C41.8882 15.8425 40.9031 18.2261 39.1479 19.9849L24.7843 34.3485C23.6928 35.3906 22.2417 35.9721 20.7326 35.9721C19.2235 35.9721 17.7725 35.3906 16.6809 34.3485C15.6071 33.2738 15.0041 31.8166 15.0045 30.2974C15.0049 28.7782 15.6087 27.3213 16.683 26.2472L27.3622 15.566C27.5556 15.3726 27.7853 15.2191 28.038 15.1144C28.2907 15.0098 28.5616 14.9559 28.8352 14.9559C29.1087 14.9559 29.3796 15.0098 29.6323 15.1144C29.8851 15.2191 30.1147 15.3726 30.3081 15.566C30.5016 15.7594 30.655 15.9891 30.7597 16.2418C30.8644 16.4945 30.9183 16.7654 30.9183 17.039C30.9183 17.3125 30.8644 17.5834 30.7597 17.8362C30.655 18.0889 30.5016 18.3185 30.3081 18.512L19.629 29.1932C19.4838 29.3383 19.3687 29.5105 19.2902 29.7C19.2116 29.8896 19.1712 30.0928 19.1712 30.2979C19.1712 30.5031 19.2116 30.7063 19.2902 30.8959C19.3687 31.0854 19.4838 31.2576 19.629 31.4027C19.9266 31.6867 20.3223 31.8452 20.7337 31.8452C21.1451 31.8452 21.5408 31.6867 21.8384 31.4027L36.2021 17.039C37.1773 16.0616 37.7249 14.7372 37.7249 13.3565C37.7249 11.9758 37.1773 10.6515 36.2021 9.67407C35.2101 8.72606 33.8908 8.19703 32.5186 8.19703C31.1465 8.19703 29.8272 8.72606 28.8352 9.67407L12.262 26.2472C11.4399 27.0694 10.7878 28.0455 10.3429 29.1197C9.89804 30.194 9.66912 31.3453 9.66922 32.508C9.66931 33.6708 9.89842 34.8221 10.3435 35.8962C10.7885 36.9704 11.4407 37.9464 12.263 38.7685C13.0852 39.5906 14.0613 40.2427 15.1356 40.6876C16.2098 41.1324 17.3612 41.3614 18.5239 41.3613C19.6866 41.3612 20.8379 41.1321 21.9121 40.687C22.9862 40.242 23.9622 39.5897 24.7843 38.7675L37.675 25.8789C37.8684 25.6855 38.098 25.532 38.3508 25.4274C38.6035 25.3227 38.8744 25.2688 39.148 25.2688C39.4215 25.2688 39.6924 25.3227 39.9451 25.4274C40.1979 25.532 40.4275 25.6855 40.6209 25.8789C40.8144 26.0723 40.9678 26.302 41.0725 26.5547C41.1772 26.8075 41.2311 27.0783 41.2311 27.3519C41.2311 27.6255 41.1772 27.8963 41.0725 28.1491C40.9678 28.4018 40.8144 28.6314 40.621 28.8249L27.7303 41.7135C26.5245 42.9268 25.0899 43.8887 23.5096 44.5435C21.9293 45.1983 20.2348 45.533 18.5242 45.5282Z" fill="#337BFD"/>
</svg>
