<svg width="20" height="22" viewBox="0 0 20 22" fill="none" xmlns="http://www.w3.org/2000/svg">
<path d="M0.499993 7.9L9.49999 13.1C9.69999 13.2 9.79999 13.2 9.99999 13.2C10.2 13.2 10.3 13.2 10.5 13.1L19.5 7.9C19.7 7.8 19.8 7.7 19.9 7.5C20.1 7 20 6.4 19.5 6.1L10.5 0.9C10.2 0.7 9.79999 0.7 9.49999 0.9L0.499993 6.1C0.299993 6.2 0.199992 6.3 0.0999925 6.5C-0.100008 7 -7.42078e-06 7.6 0.499993 7.9ZM19.5 10.1L19.3 10L10.5 15.1C10.2 15.3 9.79999 15.3 9.49999 15.1L0.699993 10L0.499993 10.1C-7.42078e-06 10.4 -0.100008 11 0.0999925 11.5C0.199992 11.7 0.299993 11.8 0.499993 11.9L9.49999 17.1C9.79999 17.3 10.2 17.3 10.5 17.1L19.5 11.9C20 11.6 20.1 11 19.9 10.5C19.8 10.3 19.7 10.2 19.5 10.1ZM19.5 14.1L19.3 14L10.5 19.1C10.2 19.3 9.79999 19.3 9.49999 19.1L0.699993 14L0.499993 14.1C-7.42078e-06 14.4 -0.100008 15 0.0999925 15.5C0.199992 15.7 0.299993 15.8 0.499993 15.9L9.49999 21.1C9.79999 21.3 10.2 21.3 10.5 21.1L19.5 15.9C20 15.6 20.1 15 19.9 14.5C19.8 14.3 19.7 14.2 19.5 14.1Z" fill="#1E58EB"/>
</svg>
